<svg xmlns="http://www.w3.org/2000/svg" fill="none" viewBox="0 0 74 62" height="62" width="74">
<path fill="#151A1E" d="M64.2963 36.571C64.227 36.5364 64.123 36.5017 64.0537 36.5017C63.9151 35.8431 63.7764 35.1499 63.6378 34.4913C62.598 29.0842 61.5581 23.6424 60.553 18.2352C60.2757 16.6755 59.3745 15.9476 57.8147 15.9823C57.2255 15.9823 56.6709 15.9823 56.0817 15.9823C53.0315 15.9823 52.4422 16.7449 53.1701 19.7604C55.2498 28.3563 57.3641 36.9523 59.3398 45.5829C59.8251 47.7319 60.1023 49.9848 60.137 52.2031C60.137 54.3175 59.6864 54.4215 57.5721 54.0402C56.8789 53.9362 55.839 54.0402 55.4577 54.4908C54.0366 56.1199 54.9725 59.6553 56.9135 60.5912C60.2063 62.1509 63.9844 60.8338 65.4402 57.5063C66.0294 56.1545 66.5147 54.6987 66.792 53.243C68.6983 43.7112 70.5007 34.1794 72.3377 24.6129C72.7537 22.5333 73.1349 20.4189 73.4122 18.3392C73.5509 17.2647 73.3083 16.1209 71.9565 16.017C68.1784 15.7743 67.3465 15.8783 66.9306 19.3791C66.8959 19.795 66.8266 20.1763 66.7573 20.5922C65.8908 25.8954 65.0935 31.2332 64.2963 36.571ZM21.1086 11.511C21.1086 12.2042 21.1086 12.8974 21.1086 13.556C21.1086 25.0635 21.1086 36.6057 21.1086 48.1132C21.1086 51.7526 21.4552 52.0992 24.9906 52.0992C25.3373 52.0992 25.6839 52.0992 26.0305 52.0992C29.5659 52.0992 29.9125 51.7179 29.9472 48.1478C29.9472 47.9745 29.9472 47.8012 29.9472 47.6279C29.9472 33.5208 29.9472 19.4138 29.9472 5.27202C29.9472 4.64812 29.9472 3.98956 29.8432 3.36566C29.6006 1.56328 28.9074 1.07801 27.1396 1.52861C24.644 2.15251 22.1484 2.88039 19.6182 3.43497C17.8505 3.81624 17.0533 4.78678 17.2266 6.58916C17.2612 7.03976 17.2266 7.52501 17.2266 7.97561C17.2266 11.823 17.2612 11.8576 21.1086 11.511ZM45.0248 15.809C45.0248 11.8576 45.0248 8.01022 45.0248 4.19749C45.0248 0.107484 44.8168 -0.0311092 40.6921 0.0035519C38.9937 0.0035519 38.2312 0.80074 38.0925 2.32583C37.9539 3.64295 37.9539 4.96004 37.9192 6.27716C37.7459 9.46598 37.5726 12.6548 37.434 15.809C34.6611 16.1902 34.2798 16.5023 34.1412 18.4779C33.8985 22.0827 34.0372 22.3253 37.434 23.2611C37.434 23.8503 37.434 24.4743 37.434 25.0982C37.434 30.0547 37.33 35.0113 37.4687 39.9678C37.538 42.2901 37.8499 44.6817 38.3698 46.9347C39.0631 49.8115 41.0734 51.6139 44.0543 51.9952C45.926 52.2378 47.8323 52.1685 49.7387 52.1685C50.1546 52.1685 50.8825 51.8912 50.9172 51.6486C51.1598 50.0542 51.4717 48.3905 51.2638 46.796C51.0905 45.4789 49.6347 45.6522 48.5255 45.6175C45.8566 45.6175 45.302 45.3402 45.2327 42.602C45.0594 36.155 45.1288 29.7081 45.0941 23.2958C45.0941 23.2265 45.2328 23.1225 45.4407 22.8799C46.5845 22.8799 47.867 23.0532 49.0801 22.8452C50.8479 22.5332 50.6052 20.9042 50.6399 19.6564C50.7439 16.3982 50.7092 16.3982 45.0248 15.809ZM4.02068 11.5457C4.02068 12.2389 4.02068 12.8975 4.02068 13.5907C4.02068 24.8902 4.02068 36.1551 4.02068 47.4546C4.02068 52.1685 4.02068 52.1685 8.69993 52.1685C12.478 52.1685 12.7553 51.8565 12.7899 48.0438C12.7899 47.9398 12.7899 47.8012 12.7899 47.6972C12.7899 33.5208 12.7899 19.3444 12.7899 5.20272C12.7899 4.61348 12.79 4.0589 12.7206 3.46966C12.5127 1.70195 11.7848 1.18198 10.0517 1.59791C7.86807 2.11783 5.71909 2.70708 3.53544 3.26166C0.103988 4.16285 0 4.30153 0 7.8023C0 11.719 0.207958 11.8923 4.02068 11.5457Z"></path>
<path fill="#151A1E" d="M64.2964 36.5711C65.0936 31.2332 65.8908 25.8955 66.688 20.5576C66.7574 20.1764 66.8267 19.7604 66.8613 19.3445C67.2773 15.8784 68.1091 15.7397 71.8872 15.9823C73.2737 16.0863 73.4816 17.2302 73.343 18.3047C73.0657 20.419 72.6844 22.4986 72.2685 24.5783C70.4314 34.1101 68.5944 43.6766 66.7227 53.2084C66.4454 54.6642 65.9602 56.0853 65.3709 57.4717C63.9152 60.7992 60.1371 62.1163 56.8443 60.5565C54.9033 59.6207 54.0021 56.0852 55.3885 54.4561C55.7698 54.0055 56.8443 53.867 57.5028 54.0056C59.6172 54.3869 60.0678 54.2829 60.0678 52.1686C60.0678 49.9502 59.7905 47.6972 59.2706 45.5482C57.2949 36.9176 55.1459 28.3217 53.1009 19.7257C52.373 16.7102 52.9623 15.9477 56.0124 15.9477C56.6017 15.9477 57.1563 15.9477 57.7455 15.9477C59.3053 15.913 60.2064 16.6409 60.4837 18.2007C61.4889 23.6425 62.5634 29.0496 63.5685 34.4567C63.7072 35.1153 63.8459 35.8085 63.9845 36.4671C64.1231 36.5017 64.1924 36.5364 64.2964 36.5711Z"></path>
<path fill="#151A1E" d="M21.1087 11.511C17.2613 11.8577 17.2613 11.823 17.2613 8.01024C17.2613 7.55965 17.296 7.07439 17.2613 6.6238C17.088 4.82142 17.8505 3.85096 19.6529 3.46969C22.1832 2.91511 24.6788 2.18723 27.1744 1.56333C28.9421 1.11273 29.6353 1.59801 29.8779 3.40038C29.9473 4.02428 29.9819 4.64818 29.9819 5.30674C29.9819 19.4138 29.9819 33.5209 29.9819 47.6626C29.9819 47.8359 29.9819 48.0092 29.9819 48.1825C29.9472 51.7526 29.566 52.1338 26.0652 52.1338C25.7186 52.1338 25.372 52.1338 25.0254 52.1338C21.49 52.1338 21.1433 51.7872 21.1433 48.1478C21.1433 36.6403 21.1433 25.0982 21.1433 13.5907C21.1087 12.8628 21.1087 12.2043 21.1087 11.511Z"></path>
<path fill="#151A1E" d="M45.0249 15.809C50.7093 16.3983 50.744 16.3983 50.6746 19.6564C50.64 20.9042 50.9173 22.5333 49.1149 22.8452C47.9017 23.0532 46.5846 22.8799 45.4755 22.8799C45.2675 23.1226 45.1289 23.1919 45.1289 23.2958C45.1635 29.7428 45.0942 36.1898 45.2675 42.6021C45.3368 45.3403 45.8914 45.6176 48.5603 45.6176C49.6695 45.6176 51.1252 45.479 51.2985 46.7961C51.5065 48.3558 51.1599 50.0196 50.9519 51.6486C50.9172 51.8913 50.1894 52.1686 49.7735 52.1686C47.8671 52.1686 45.9607 52.2379 44.089 51.9953C41.1082 51.614 39.0978 49.8116 38.4046 46.9347C37.85 44.6471 37.5381 42.2902 37.5034 39.9679C37.3648 35.0113 37.4688 30.0547 37.4688 25.0982C37.4688 24.4743 37.4688 23.8504 37.4688 23.2611C34.072 22.3253 33.8987 22.0827 34.176 18.478C34.3146 16.5023 34.6959 16.1903 37.4688 15.809C37.6421 12.6549 37.8153 9.46603 37.954 6.27721C38.0233 4.96009 38.0233 3.643 38.1273 2.32588C38.2659 0.800789 39.0285 0.00360107 40.7269 0.00360107C44.8515 0.00360107 45.0595 0.142195 45.0595 4.19754C45.0248 8.01026 45.0249 11.8576 45.0249 15.809Z"></path>
<path fill="#151A1E" d="M4.02068 11.5457C0.173297 11.8923 0 11.719 0 7.80231C0 4.26687 0.103988 4.12819 3.53544 3.26167C5.71909 2.70709 7.86807 2.15249 10.0517 1.59792C11.7848 1.18198 12.5473 1.70195 12.7206 3.46967C12.79 4.02424 12.7899 4.61348 12.7899 5.20272C12.7899 19.3791 12.7899 33.5555 12.7899 47.6972C12.7899 47.8012 12.7899 47.9398 12.7899 48.0438C12.7553 51.8912 12.478 52.1685 8.69993 52.1685C4.02068 52.1685 4.02068 52.1685 4.02068 47.4546C4.02068 36.1551 4.02068 24.8902 4.02068 13.5907C4.02068 12.9321 4.02068 12.2389 4.02068 11.5457Z"></path>
</svg>
